<svg height="35" viewBox="0 0 120 135" width="35" xmlns="http://www.w3.org/2000/svg"><style><![CDATA[.st0{fill:#EF3E42}.st1{fill:#FFFFFF}.st3{fill-rule:evenodd;clip-rule:evenodd;fill:#FFFFFF}]]></style><path fill="#FF4B3A" d="M39.3 49.1c-2 5.8-3.2 12-3.6 18.5h17.2V49.1H39.3zm3.1-7.5h10.5V26.8C48.7 31 45.2 36 42.4 41.6zm-8.2 0c2.2-5.1 5-9.9 8.3-14.2-8.5 2.7-15.8 7.8-21.1 14.2h12.8zM97 49.1H81.8c1.8 5.8 2.9 12 3.2 18.5h17.6c-.5-6.7-2.5-12.9-5.6-18.5zM77.5 67.6c-.3-6.5-1.6-12.7-3.6-18.5H60.3v18.5h17.2zm-6.7-26C68.1 36 64.5 31 60.3 26.8v14.8h10.5zm8.2 0h12.8c-5.4-6.3-12.7-11.5-21.1-14.2 3.3 4.3 6.1 9.1 8.3 14.2zm-62.8 52h15.2c-1.8-5.8-2.9-12-3.2-18.5H10.6c.6 6.7 2.5 13 5.6 18.5zm19.5-18.5c.3 6.5 1.6 12.7 3.6 18.5h13.6V75.1H35.7zm6.7 26c2.8 5.6 6.4 10.6 10.5 14.8v-14.8H42.4zm-8.2 0H21.3c5.4 6.3 12.7 11.5 21.1 14.2-3.2-4.2-6-9-8.2-14.2zm47.6-7.5H97c3.1-5.6 5-11.8 5.6-18.5H85c-.3 6.5-1.4 12.7-3.2 18.5zm-7.9 0c2-5.8 3.2-12 3.6-18.5H60.3v18.5h13.6zm-3.1 7.5H60.3v14.8c4.2-4.1 7.8-9.1 10.5-14.8zm8.2 0c-2.2 5.1-5 9.9-8.3 14.2 8.5-2.7 15.8-7.8 21.1-14.2H79zm-47.6-52H16.2c-3.1 5.6-5 11.9-5.6 18.5h17.6c.4-6.4 1.5-12.7 3.2-18.5zM56.6 125C27 125 3 101 3 71.4s24-53.6 53.6-53.6 53.6 24 53.6 53.6-24 53.6-53.6 53.6z"/><path id="_x3C_Slice_x3E__100_" fill="none" d="M0 0h120v135H0z"/></svg>